<svg xmlns="http://www.w3.org/2000/svg" viewBox="0 0 251.13 277.56"><defs><style>.cls-1{fill:#e83d5f;}</style></defs><g id="Calque_2" data-name="Calque 2"><g id="Calque_1-2" data-name="Calque 1"><path class="cls-1" d="M249.3,250.34C229,220.1,216.45,187.38,218,150.2c.32-8-4.54-10.94-12.08-7.86-7.77,3.18-12.11,9.52-14.31,17.4-3.36,12-3,24.24-2.13,36.48.6,8.78,1.44,17.55,2.23,27-4.82,0-8.93,0-13,0-32.3.36-64.64-1.16-96.86,2.23-6.66.7-13.24,1.89-18.86,6-4,2.89-4.4,6.93-3.29,11.23,1,3.93,4.24,4.91,7.79,4.91,29.44,0,57.05,8.24,84.39,18.11,22.61,8.17,45.52,15.17,70.09,10.14,10.65-2.18,20-6.53,26.93-15.35C251.53,257.05,252.07,254.47,249.3,250.34Z"/><path class="cls-1" d="M74,254.7c-4.17.39-6.84,2.67-6.61,7,.19,3.82,3.23,3.8,6.17,3.79q28.69-.06,57.39,0c-10.46-5.63-21.55-8.1-32.84-9.48C90.16,255.05,82.12,253.93,74,254.7Z"/><path class="cls-1" d="M138.24,80.32c4.75,4.07,9.13,8.57,13.83,12.69,11,9.61,21.36,20,34.19,27.17,8.19,4.59,16.84,6.43,25.31.8,5.71-3.79,7.17-8.47,1.45-13.89a191.67,191.67,0,0,1-22.24-25.62c-17-23.09-22.85-49.32-20.91-78C137-5.66,109.38,3.72,86.93,25.94,56,56.53,34.65,94.4,11.94,131.08c-3.67,5.93-.7,10.43,5.09,12.8,6.68,2.74,13,1,18.34-3.51,5.71-4.77,11.18-9.84,16.71-14.84,17-15.39,33.6-31.25,51.08-46.07C115.81,68.73,125.63,69.54,138.24,80.32Z"/><path class="cls-1" d="M17,107.46a367.11,367.11,0,0,0,34.7-47.23C34.13,72,18.15,85.73,3,100.46.76,102.67-1.2,105,.89,108.18c1.91,2.88,4.82,4.44,8.44,3.6A14,14,0,0,0,17,107.46Z"/><path class="cls-1" d="M56.37,145.22c1,6.6,1.56,13.2,2,19.81s.54,13.2.54,19.8-.16,13.2-.53,19.8-.92,13.21-2,19.81c-1-6.6-1.57-13.21-2-19.81s-.54-13.2-.53-19.8.17-13.2.54-19.8S55.32,151.82,56.37,145.22Z"/></g></g></svg>