<svg xmlns="http://www.w3.org/2000/svg" viewBox="0 0 921.27 618.4"><defs><style>.cls-1{fill:#e83d5f;}.cls-2{fill:#fff;}</style></defs><g id="Calque_2" data-name="Calque 2"><g id="Calque_1-2" data-name="Calque 1"><path class="cls-1" d="M905.8,459.91a278.9,278.9,0,0,0,9.92-36.23c1.2-6.15,2.16-12.35,2.77-18.58l1.77-18.71c.22-3.13.38-6.26.46-9.39,0-1.56.06-3.13,0-4.69s-.09-3.13-.06-4.7c0-3.14.23-6.27.3-9.4,0-1.56,0-3.13,0-4.69s0-3.13-.1-4.7a278.55,278.55,0,0,0-3.8-37.35,330.87,330.87,0,0,0-37.21-105.75,349.12,349.12,0,0,0-20.08-31.66A360.92,360.92,0,0,0,810.3,118a397.14,397.14,0,0,0-59.59-45.15C708.15,47,660.8,28.38,612.24,19.21l-.36-.06-.22-.08c-7.6-2.56-15.71-3.59-23.95-4.05h-.13l-.18,0c-17.07-2.51-34.3-4-51.57-4.85h-.16l-.22,0C525.38,8.59,515,8.62,504.59,9h-.32c-6.71-.27-13.42-.37-20.11-.21q-5,.11-10,.41L469,9.5c-1.8.09-3.58.12-5.32.11-3.49,0-6.87-.11-10.12-.06-.82,0-1.62,0-2.42.07l-2.44.13-5.11.32-20.34,1.16c-6.75.42-13.46.91-20.12,1.58S389.74,14.4,383,15.23c-13.44,1.71-26.84,3.53-40.14,5.75s-26.55,4.84-39.75,7.67-26.31,6-39.29,9.59S238,45.78,225.17,50s-25.42,8.9-37.88,13.93-24.73,10.52-36.74,16.5S126.78,92.88,115.4,99.89c-22.78,14-44,30.29-61.82,49.88C49.17,154.69,44.92,159.72,41,165a174.88,174.88,0,0,0-10.8,16.35,131.94,131.94,0,0,0-8.52,17.49,116.56,116.56,0,0,0-5.8,18.46A124.34,124.34,0,0,0,13,236.38c-.13,1.6-.13,3.22-.2,4.84l-.07,2.42,0,2.37a89.07,89.07,0,0,0,.7,9.5c1.57,12.65,5.74,25,11.41,36.84a212.27,212.27,0,0,0,20.5,33.81,336.46,336.46,0,0,0,25.76,30.63c18.27,19.62,38.54,37.33,59.93,53.73s43.77,31.63,66.57,46.23q17.07,10.92,34.64,21.08t35.52,19.65c23.91,12.7,48.3,24.6,72.92,35.94,12.31,5.64,24.72,11.06,37.27,16.12s25.23,10.15,37.85,15c6.32,2.42,12.66,4.75,19.06,6.9q4.79,1.62,9.63,3.09c3.28,1,6.58,2.1,9.79,3.26,6.44,2.31,12.73,4.79,19.11,6.76L493,590.32c13,3.86,25.9,8,39,11.39a299.08,299.08,0,0,0,39.68,8.17h.13a266.21,266.21,0,0,0,49.28,5.68c8.35.47,16.59.79,24.9.76s16.6-.34,24.88-.91,16.55-1.42,24.78-2.51,16.44-2.38,24.58-4a307.22,307.22,0,0,0,47.88-13.64,271.1,271.1,0,0,0,44.78-21.77,230.89,230.89,0,0,0,39.49-30.31,205,205,0,0,0,16.91-18.33,214.66,214.66,0,0,0,14.71-20.13A206.82,206.82,0,0,0,905.8,459.91Zm0,0a207.09,207.09,0,0,1-21.68,44.84,221.16,221.16,0,0,1-31.55,38.57,230.79,230.79,0,0,1-39.39,30.54c-7.08,4.4-14.41,8.37-21.88,12.06S776.21,593,768.44,596c-31.11,12.07-64.2,18.39-97.39,21.18a393.34,393.34,0,0,1-50,.79,268.72,268.72,0,0,1-49.84-5l.14,0a303.56,303.56,0,0,1-40.24-7.68c-13.23-3.17-26.27-7.19-39.38-10.83L472.11,589c-6.65-1.93-13.05-4.33-19.44-6.49-3.2-1.09-6.36-2.1-9.6-3s-6.57-1.93-9.83-3c-6.52-2.07-13-4.32-19.39-6.64-12.84-4.67-25.45-9.6-38.21-14.37S350.3,545.42,337.81,540c-24.94-11-49.63-22.49-73.95-34.86s-48.19-25.64-71.43-40-46-29.39-68-45.79S81.49,385,62.53,364.94a346.82,346.82,0,0,1-26.94-31.52,220,220,0,0,1-22-35.65C7.5,285.14,2.75,271.47.89,257.12A100.07,100.07,0,0,1,0,246.31l0-2.72.07-2.68c.06-1.78.06-3.56.19-5.34a132.66,132.66,0,0,1,3-21.17A130.36,130.36,0,0,1,9.67,194,146.25,146.25,0,0,1,19,174.86,188.1,188.1,0,0,1,30.58,157.2c4.22-5.62,8.73-11,13.39-16.18,18.84-20.68,41.17-37.73,64.72-52.1,11.79-7.19,23.9-13.72,36.25-19.83s24.95-11.6,37.71-16.71,25.7-9.66,38.73-13.9,26.14-8.09,39.4-11.64,26.62-6.55,40-9.3q10.05-2.05,20.12-3.89c6.7-1.23,13.5-2.4,20.26-3.41,13.54-2.06,27.1-3.7,40.64-5.22,6.78-.73,13.47-1.52,20.39-2.14s13.71-1,20.54-1.31L443.12.7l5.07-.24,2.65-.11,2.68,0c3.53,0,7,.16,10.25.21,1.66,0,3.28,0,4.87,0l5.05-.25Q478.87,0,484,0c6.9,0,13.79.19,20.65.59h-.32c10.62-.18,21.49,0,32.3,1.75l-.38,0c17.44,1.18,34.88,3,52.18,5.83l-.31,0c8.53.63,17.27,1.87,25.62,4.84l-.58-.14a171.06,171.06,0,0,1,18.66,4.29l9,2.53c3,.84,6.09,1.68,9.1,2.61A372,372,0,0,1,685.66,35c11.65,4.82,23.09,10.13,34.3,15.82s22.21,12,32.83,18.73a400.08,400.08,0,0,1,59.42,46.42A371,371,0,0,1,861.27,173a352.38,352.38,0,0,1,19.82,32,345.18,345.18,0,0,1,16.12,34,340.46,340.46,0,0,1,20.34,72.31,278,278,0,0,1,3.62,37.42c0,1.57.08,3.14.08,4.7s0,3.14,0,4.71c-.09,3.13-.31,6.26-.36,9.39,0,1.56,0,3.13,0,4.7s0,3.13-.06,4.7q-.14,4.69-.48,9.39l-1.8,18.71c-.62,6.24-1.59,12.44-2.8,18.58A278.56,278.56,0,0,1,905.8,459.91Z"/><path class="cls-2" d="M372.16,384.59a19.46,19.46,0,0,1-7.9-1.59,19.15,19.15,0,0,1-6.27-4.36,20.25,20.25,0,0,1-4.08-6.31l-.55,11.17h-3.63V318.41h4.09v30.95a19.79,19.79,0,0,1,6.81-9.16,18.65,18.65,0,0,1,11.53-3.54,20.2,20.2,0,0,1,19.06,11.66,30.29,30.29,0,0,1,0,24.69,20.47,20.47,0,0,1-7.49,8.49A21.11,21.11,0,0,1,372.16,384.59Zm-.19-3.72a16.63,16.63,0,0,0,15.44-9.54,23.69,23.69,0,0,0,2.27-10.71,24.06,24.06,0,0,0-2.27-10.76,16.73,16.73,0,0,0-6.27-7,17.12,17.12,0,0,0-9.17-2.45,16.77,16.77,0,0,0-9.17,2.54,17,17,0,0,0-6.21,7.13,23.82,23.82,0,0,0-2.23,10.57,23.52,23.52,0,0,0,2.23,10.53,17.41,17.41,0,0,0,6.21,7.13A16.55,16.55,0,0,0,372,380.87Z"/><path class="cls-2" d="M424.44,384.59a21.71,21.71,0,0,1-11.21-2.91,20.38,20.38,0,0,1-7.8-8.3,29.8,29.8,0,0,1,0-25.56,20.83,20.83,0,0,1,7.9-8.26,23.39,23.39,0,0,1,22.56,0,20.62,20.62,0,0,1,7.81,8.26,27.11,27.11,0,0,1,2.86,12.89,26.34,26.34,0,0,1-2.91,12.67,20.68,20.68,0,0,1-7.9,8.3A22.12,22.12,0,0,1,424.44,384.59Zm0-3.63a17.67,17.67,0,0,0,8.77-2.27,17.29,17.29,0,0,0,6.58-6.81,26.42,26.42,0,0,0,0-22.52,16.65,16.65,0,0,0-6.53-6.76,18,18,0,0,0-17.39,0,16.82,16.82,0,0,0-6.58,6.76,22.89,22.89,0,0,0-2.5,11.21,23.18,23.18,0,0,0,2.5,11.26,17,17,0,0,0,6.49,6.81A17.19,17.19,0,0,0,424.44,381Z"/><path class="cls-2" d="M510.14,383.5V318.14h4.09V383.5Zm26.78,0-23.51-25.06,21.69-20.7h5.36l-23.15,22v-2.54l25.15,26.33Z"/><path class="cls-2" d="M553.17,325.67a3,3,0,0,1-2.22-.95,3.16,3.16,0,0,1-1-2.32,2.85,2.85,0,0,1,1-2.22,3.3,3.3,0,0,1,4.44,0,2.85,2.85,0,0,1,1,2.22,3.16,3.16,0,0,1-1,2.32A3,3,0,0,1,553.17,325.67Zm-2.09,57.83V337.74h4.09V383.5Z"/><path class="cls-2" d="M568.6,383.5V337.74h3.63l.36,9.26a17.15,17.15,0,0,1,6.59-7.76,17.63,17.63,0,0,1,9.39-2.58,18.73,18.73,0,0,1,8.81,2,14.14,14.14,0,0,1,6,6.13,22.84,22.84,0,0,1,2.18,10.67V383.5h-4.09V356.08q0-8.07-3.45-11.89t-10-3.81a14.74,14.74,0,0,0-7.85,2.13,14.5,14.5,0,0,0-5.5,6.22,22.84,22.84,0,0,0-2,10.08V383.5Z"/><path class="cls-2" d="M624.7,402.83a16.72,16.72,0,0,1-7.31-5,12.41,12.41,0,0,1-2.67-8,14.14,14.14,0,0,1,.77-4.63,12.48,12.48,0,0,1,2.81-4.45,25.49,25.49,0,0,1,5.77-4.35l3.54,1.63q-5.18,2.73-7,5.58a10.88,10.88,0,0,0-1.77,5.77,9.48,9.48,0,0,0,2.13,6.22,13.76,13.76,0,0,0,5.86,4,23.71,23.71,0,0,0,8.44,1.41,24,24,0,0,0,8.54-1.36,12.25,12.25,0,0,0,5.49-3.91,9.28,9.28,0,0,0,1.95-5.81,8.88,8.88,0,0,0-3.22-7.21q-3.23-2.68-11.58-3.14-5.09-.36-8.53-.9a39.44,39.44,0,0,1-5.81-1.32,21,21,0,0,1-3.95-1.68c-1.06-.6-2-1.21-3-1.82V372l8.17-7.26,3.9,1.45-8.44,7.17v-1.91l2.32,1.27a14.72,14.72,0,0,0,2.95,1.19,40.06,40.06,0,0,0,4.9,1q3.09.49,8.26.86A32.47,32.47,0,0,1,648,378a12,12,0,0,1,5.72,4.67,13.29,13.29,0,0,1,1.73,6.9,14,14,0,0,1-2.05,7.26,14.58,14.58,0,0,1-6.49,5.59Z"/><path class="cls-2" d="M651,344.6a12.93,12.93,0,0,0-2.35-3.23,14.46,14.46,0,0,0-3.46-2.58,14.83,14.83,0,0,0-2.43-1.05,23.53,23.53,0,0,0-7.55-1.09,20.18,20.18,0,0,0-9.81,2.14,14.31,14.31,0,0,0-5.9,5.81,17.31,17.31,0,0,0-2,8.39,17,17,0,0,0,2,8.22,14.13,14.13,0,0,0,3.29,4.05,15.45,15.45,0,0,0,2.61,1.8,5.28,5.28,0,0,0,.53.27,23.72,23.72,0,0,0,19.26-.27,14.05,14.05,0,0,0,5.81-5.85,17.6,17.6,0,0,0,1.91-8.22A18,18,0,0,0,651,344.6Zm-5.63,17.7q-3.45,3.31-10.16,3.31-6.18,0-9.85-3.22t-3.68-9.4c0-4.29,1.23-7.49,3.68-9.57s5.73-3.14,9.85-3.14q6.53,0,10.07,3.14c2.36,2.08,3.54,5.28,3.54,9.57Q648.85,359,645.4,362.3Z"/><polygon class="cls-2" points="643.31 341.47 641.77 337.75 659.2 337.75 659.2 341.19 643.31 341.47"/><path class="cls-2" d="M661.19,219c-24.91,0-42.26,17.49-42.28,42.63,0,25.43,17.4,43.1,42.35,43,24.74-.13,42.3-17.89,42.33-42.81S685.81,219,661.19,219ZM661,290c-16.41-.17-27.92-11.77-28-28.17s11.79-28.45,28.24-28.4,27.83,11.73,27.83,28.22C689.12,278.46,677.47,290.21,661,290Z"/><path class="cls-2" d="M556.27,221.19v50.75c-1.43-1.67-2-2.36-2.58-3-14.09-15.14-28.25-30.23-42.22-45.47-2.3-2.51-4.51-3.26-7.57-2.19v81.27h14.57V252c15.41,16.48,30.23,32.2,44.87,48.09,2.17,2.35,4.23,3.21,7.25,2.22V221A83.92,83.92,0,0,0,556.27,221.19Z"/><path class="cls-2" d="M773.12,221v49.51l-1.2.78a21.2,21.2,0,0,0-1.93-3c-13.74-14.84-27.55-29.62-41.25-44.51-2.25-2.45-4.48-4-8-2.57v81.23h14.55V252c15.32,16.41,30,32.07,44.56,47.81,2.17,2.34,4.34,3.74,7.59,2.48V221Z"/><path class="cls-2" d="M485.78,221H472v5c0,15.48.06,30.95,0,46.43a18,18,0,0,1-20.94,17.78c-11-1.68-16.56-8.48-16.64-20.55-.09-14.56,0-29.11-.05-43.67,0-1.61.57-3.36-.61-4.84H420.37c0,18.93-.2,37.61.12,56.28.1,5.51,2.65,10.62,6,15.15,8.3,11.31,23.56,15.83,38,11.27,13.32-4.22,22.07-16.23,22.2-31,.16-16.39,0-32.79,0-49.18C486.64,222.7,486.88,221.71,485.78,221Z"/><path class="cls-2" d="M364.75,221H350.56v81.35H403.1V289.1H364.75Z"/><path class="cls-2" d="M587.8,302.55h13.91V221.08H587.8Z"/><path class="cls-2" d="M471.64,384.39l-17-45.71a1.42,1.42,0,0,1,1.82-1.83l45.7,17a.29.29,0,0,1,0,.55h0q-10.62,3.92-21.25,7.83a1.54,1.54,0,0,0-1,1.09q-3.87,10.54-7.78,21.06v0A.29.29,0,0,1,471.64,384.39Z"/><path class="cls-2" d="M303.45,412.45c7.84-1.6,14.74-4.8,19.84-11.31,2-2.55,2.39-4.45.35-7.49-14.94-22.27-24.19-46.37-23.08-73.75.23-5.88-3.34-8.06-8.9-5.79-5.72,2.34-8.91,7-10.54,12.81-2.47,8.84-2.19,17.86-1.57,26.87.45,6.47,1.06,12.93,1.65,19.92-3.55,0-6.58,0-9.61,0-23.78.27-47.6-.85-71.33,1.65-4.9.51-9.75,1.39-13.89,4.4-2.92,2.13-3.24,5.1-2.43,8.27.75,2.89,3.13,3.62,5.74,3.62,21.68,0,42,6.06,62.16,13.34"/><path class="cls-2" d="M236.5,404.81c-7.7-4.15-15.87-6-24.18-7-5.87-.71-11.79-1.54-17.75-1-3.07.29-5,2-4.88,5.18.15,2.81,2.38,2.8,4.55,2.79"/><path class="cls-2" d="M265.15,211.83c-24.22-6.71-44.55.19-61.08,16.56-22.76,22.52-38.51,50.41-55.23,77.43-2.7,4.37-.52,7.68,3.75,9.43,4.92,2,9.55.72,13.5-2.59,4.21-3.51,8.24-7.25,12.31-10.93,12.52-11.33,24.75-23,37.62-33.93,9.31-7.9,16.55-7.31,25.83.64,3.5,3,6.73,6.3,10.19,9.34,8.07,7.08,15.73,14.7,25.18,20,6,3.38,12.4,4.74,18.64.59,4.21-2.79,5.28-6.24,1.07-10.23a140.75,140.75,0,0,1-16.38-18.87c-12.55-17-16.83-36.32-15.4-57.45"/><path class="cls-2" d="M152.54,288.42a269.91,269.91,0,0,0,25.56-34.78,257.3,257.3,0,0,0-35.82,29.63c-1.67,1.63-3.12,3.37-1.58,5.68a5.61,5.61,0,0,0,6.22,2.65A10.27,10.27,0,0,0,152.54,288.42Z"/><path class="cls-2" d="M180.66,315.13A93.35,93.35,0,0,1,183,329.71q.66,7.29.65,14.59T183,358.88a93.51,93.51,0,0,1-2.36,14.59,94.7,94.7,0,0,1-2.36-14.59c-.44-4.86-.64-9.72-.64-14.58s.21-9.73.65-14.59A95.77,95.77,0,0,1,180.66,315.13Z"/></g></g></svg>