<?xml version="1.0" encoding="UTF-8"?>
<svg id="Calque_1" data-name="Calque 1" xmlns="http://www.w3.org/2000/svg" viewBox="0 0 1080 1080">
  <defs>
    <style>
      .cls-1 {
        fill: #ed6a58;
      }

      .cls-1, .cls-2, .cls-3, .cls-4, .cls-5, .cls-6, .cls-7, .cls-8 {
        stroke-width: 0px;
      }

      .cls-2 {
        fill: #c8301d;
      }

      .cls-3 {
        fill: #fde34a;
      }

      .cls-4 {
        fill: #1c1c1b;
      }

      .cls-5 {
        fill: #fcfbfa;
      }

      .cls-6 {
        fill: #a0d1d9;
      }

      .cls-7 {
        fill: #f2917f;
      }

      .cls-8 {
        fill: #e62e20;
      }
    </style>
  </defs>
  <path class="cls-8" d="M1080,1.55v1078.44c-359.76,0-719.53,0-1079.29,0,0-.9-.01-1.8-.01-2.7,0-356.21,0-712.41,0-1068.62,0-2.36.07-4.72.1-7.08.9-.02,1.8-.05,2.7-.05,358.83,0,717.67,0,1076.5,0ZM738.41,499.61c-.09.57.16.92.72,1.04l.03.27.27.03c.14.78.47,1.39,1.39,1.4.1.77.47,1.29,1.31,1.32.24.84.69,1.45,1.67,1.44h-.09c5.01,5.3,11.37,7.05,18.32,6.18,8.09-1.01,13.33-6.56,15.81-13.58,6.01-17.04-1.18-37.99-16.66-47.23-9.96-5.95-21.94-3.37-27.84,6.61-5.52,9.34-5.33,19.29-2.21,29.3,1.2,3.84,2.32,7.87,5.6,10.68h.05c-.24,1.36.59,2.05,1.65,2.6l-.02-.04ZM541.37,357.21c-.78,0-1.56-.06-2.34,0-16.95,1.57-33.88,1.86-50.78-.58-.57-.08-1.32-.42-1.84.45,3.05,2.88,7.25,4.12,10.69,7.15-6.75,2.6-13.04,4.99-19.01,8.13-6.06,3.19-12.05,6.5-17.8,10.23-5.65,3.67-11.25,7.43-16.53,11.63-5.22,4.16-10.7,8.01-15.24,12.97,8.94-2.55,17.7-5.39,26.65-7.52,8.96-2.13,17.96-4.09,27.17-4.82,1.61-.13,2.59-1.17,3.65-2.21,12.87-12.59,27.28-22.94,43.73-30.45,3.84-1.75,8.06-2.63,11.61-5.04.6-.04,1.19-.08,2.2-.15-1.07-.38-1.69-.49-2.17.18ZM761.02,438.13c4.93,1.15,9.26,3.53,13.07,6.76,3.13,2.65,6.02,5.59,8.98,8.43.93.89,1.71.72,2.94-.32-2.85-3.37-4.65-7.28-7.89-10.4-5.19-4.99-10.64-9.33-17.36-12.12-2.14-.89-4.79-.25-6.47-2.29-.3-.6-.56-1.22-.91-1.78-8.26-13.01-18.56-24.2-30.41-34-23.74-19.65-50.98-30.47-81.82-31.23-21.7-.53-43.42-.15-65.13-.16-21.88,0-41.56,6.66-59.14,19.64-18.28,13.49-31.8,30.86-41.99,51.03-10.47,20.72-16.36,42.69-18.71,65.7-.23,2.21.45,3.56,2.19,4.8,5.21,3.73,10.17,7.78,15,11.99,3.6,3.13,7.26,6.19,11.35,9.67,0-1.66.02-2.65,0-3.63-.27-14.97,1.86-29.61,6.96-43.69,8.23-22.71,21.45-41.45,43.66-52.56,15.61-7.81,31.86-8.97,48.41-3.38,20.11,6.8,34.24,20.76,44.22,38.91,14.26,25.93,17.77,53.65,12.16,82.63-4,20.69-12.81,38.91-27.4,54.23-.42.44-1.15.8-.62,1.95,12-3.08,24.07-6.17,36.14-9.27.18.33.36.66.54.99-13.93,38.01-36.12,69.21-73.51,87.8.84,1.15,1.69.83,2.41.83,21.26,0,42.52.23,63.78-.11,21.53-.34,41.73-6.22,60.46-16.7,18.06-10.1,33.27-23.59,45.72-40.17,15.02-20,24.84-42.34,29.9-66.76,2.91-14.02,3.96-28.26,3.34-42.59-.16-3.64-.51-7.27-.78-10.97-2.08.4-2.43,1.91-3.17,2.95-6.71,9.25-16.68,12.41-27.04,7.65-13.71-6.3-20.56-17.82-22.74-32.38-1.41-9.47-.16-18.5,5.86-26.21,1.94-2.48,1.88-4.2.66-6.79-11.65-24.81-26.78-47.26-45.29-67.46-2.02-2.2-3.92-4.5-5.88-6.76,8.82,6.09,16.37,13.54,23.57,21.32,13.81,14.9,25.61,31.27,34.7,49.48,1.11,2.22,2.27,2.97,4.68,2.31,2.96-.81,5.97-.54,9.03-.08,3.96.6,7.18,2.91,11.13,4.49-.35-4.69-3.87-7.69-4.59-11.75ZM218.45,523.13c1.99.16,3.11.31,4.23.34,17.56.4,34.95,2.15,52.17,5.85,32.96,7.08,60.55,23.1,82.65,48.59,11.85,13.67,22.08,28.65,34.16,42.14,21.09,23.53,45.43,42.4,75.44,53.26,15.49,5.6,31.42,8.24,47.95,7.67,10.48-.36,20.58-2.63,31.02-4.96-15.6,7.27-31.91,10.05-48.58,10.92-12.64.66-25.13-1.01-37.4-4.04-11.48-2.83-22.58-6.8-33.03-12.38-14.17-7.58-26.5-17.69-38.39-28.37-13.95-12.53-27.28-25.8-43.02-36.19-8.41-5.55-17.42-9.76-27.3-11.93-14.69-3.22-28.87-.82-42.63,4.48-4.61,1.77-9.26,3.7-13.86,7.01,1.74.34,2.82.59,3.92.75,13.48,2.02,26.71,4.92,39.36,10.2,15.43,6.43,28.36,16.42,39.87,28.24,20.13,20.69,42.01,38.84,68.81,50.41,14.23,6.14,28.92,10.52,44.33,12.33,19.28,2.26,38.28.74,57.02-4.4,9.79-2.69,19.22-6.26,28.32-10.72,19.84-9.72,37.33-22.73,53.25-37.98,15.15-14.52,28.05-30.88,40.15-47.93,1.56-2.2,3.12-4.58,2.84-7.71-.57.26-1.07.49-1.57.73-16.07,7.63-32.57,14.06-50.19,17.13-16.94,2.96-33.67,2.25-49.86-3.81-15.7-5.88-29.02-15.63-41.15-27.01-10.9-10.22-21.34-20.94-32.4-30.97-12.59-11.41-24.41-23.56-36.13-35.84-13.13-13.76-26.41-27.34-42.85-37.31-.88-.53-2.33-.83-1.93-2.35.31-1.18,1.51-1.21,2.48-1.41,10.47-2.14,20.98-4.01,31.73-4.01,6.96,0,13.91.14,20.92,1.51,3.17-11.21,6.94-21.89,11.77-32.18,4.87-10.37,10.98-20.03,17.66-29.87-23.27,2.5-45.36,10.88-68.93,7.38,3.37,5.56,8.26,8.55,13.91,10.55,5.65,1.99,11.56,1.57,17.53,1.78-3.37,1.26-6.63,2.4-9.84,3.68-19.64,7.87-36.67,19.81-52.33,33.82-1.85,1.66-3.42,1.98-5.71,1.32-7.37-2.13-14.9-3.29-22.6-3.29-19.38,0-37.49,5.38-54.98,13.16-18.75,8.34-36.07,19.15-52.9,30.81-4.58,3.17-9.15,6.36-13.9,10.6Z"/>
  <path class="cls-7" d="M.03.87C.18.67-.31.17.37.19c.9.03,1.8,0,2.7,0,357.96,0,715.93,0,1073.89.04.99,0,2.29-.78,3.04.63-354.79,0-709.59,0-1064.38,0-4.95,0-9.89.08-14.84.12-.25-.04-.5-.08-.74-.12Z"/>
  <path class="cls-1" d="M.03.87c.25.04.5.08.74.12-.06.2-.05.4.03.6-.04,2.36-.1,4.72-.1,7.08,0,356.21,0,712.41,0,1068.62,0,.9,0,1.8.01,2.7-.21-.15-.7.34-.68-.34.03-.9,0-1.8,0-2.7V.87Z"/>
  <path class="cls-2" d="M.8,1.59c-.08-.2-.09-.4-.03-.6,4.95-.04,9.89-.12,14.84-.12,354.79,0,709.59,0,1064.38,0v.67c-358.83,0-717.67,0-1076.5,0-.9,0-1.8.03-2.7.05Z"/>
  <path class="cls-3" d="M218.45,523.13c4.75-4.24,9.32-7.43,13.9-10.6,16.82-11.65,34.15-22.47,52.9-30.81,17.49-7.78,35.6-13.15,54.98-13.16,7.7,0,15.23,1.16,22.6,3.29,2.3.67,3.86.34,5.71-1.32,15.66-14,32.7-25.94,52.33-33.82,3.2-1.28,6.47-2.43,9.84-3.68-5.97-.22-11.88.21-17.53-1.78-5.65-1.99-10.54-4.99-13.91-10.55,23.57,3.5,45.66-4.88,68.93-7.38-6.69,9.84-12.79,19.5-17.66,29.87-4.83,10.28-8.6,20.97-11.77,32.18-7.01-1.37-13.95-1.51-20.92-1.51-10.75,0-21.26,1.87-31.73,4.01-.97.2-2.16.23-2.48,1.41-.4,1.52,1.05,1.82,1.93,2.35,16.44,9.96,29.72,23.54,42.85,37.31,11.71,12.28,23.53,24.43,36.13,35.84,11.07,10.03,21.51,20.75,32.4,30.97,12.13,11.38,25.45,21.13,41.15,27.01,16.18,6.06,32.92,6.77,49.86,3.81,17.63-3.08,34.12-9.5,50.19-17.13.5-.24,1-.46,1.57-.73.28,3.13-1.28,5.51-2.84,7.71-12.1,17.05-25,33.41-40.15,47.93-15.92,15.26-33.41,28.26-53.25,37.98-9.1,4.46-18.52,8.03-28.32,10.72-18.74,5.14-37.74,6.66-57.02,4.4-15.4-1.81-30.1-6.19-44.33-12.33-26.8-11.56-48.68-29.72-68.81-50.41-11.51-11.82-24.44-21.81-39.87-28.24-12.65-5.27-25.89-8.17-39.36-10.2-1.09-.16-2.17-.41-3.92-.75,4.6-3.31,9.26-5.23,13.86-7.01,13.77-5.3,27.94-7.7,42.63-4.48,9.88,2.16,18.89,6.38,27.3,11.93,15.75,10.39,29.07,23.66,43.02,36.19,11.89,10.68,24.22,20.79,38.39,28.37,10.45,5.59,21.55,9.56,33.03,12.38,12.27,3.02,24.76,4.7,37.4,4.04,16.67-.87,32.98-3.65,48.58-10.92-10.44,2.33-20.54,4.6-31.02,4.96-16.53.56-32.46-2.07-47.95-7.67-30.01-10.86-54.35-29.73-75.44-53.26-12.08-13.49-22.31-28.46-34.16-42.14-22.1-25.5-49.69-41.51-82.65-48.59-17.21-3.7-34.6-5.45-52.17-5.85-1.12-.03-2.23-.17-4.23-.34ZM422.39,620.89c5.41,4.32,10.35,8.55,15.61,12.35,4.12,2.98,8.71,3.38,13.33.72,2.84-1.63,4.8-4.04,6.16-6.93,1.43-3.05.47-6.02-1.22-9.19,3.47.6,6.28,1.01,8.84-1.18,6.28-5.36,6.95-13.04,1.36-19.29-3.91-4.38-8.96-7.47-13.32-11.36-1.53-1.36-2.44-.05-3.29.98-2.78,3.38-5.51,6.8-8.27,10.2-6.28,7.75-12.56,15.5-19.2,23.7ZM416.34,610.65c2.55-5.42,5.05-10.41,7.26-15.53.95-2.2,1.94-3.11,4.5-2.53,6.43,1.45,10.88-1.99,14.24-6.83,3.22-4.64,3.15-9.75.37-14.63-3.12-5.47-7.39-10.05-11.39-14.68-.51.13-.78.12-.94.25-11.23,9.14-22.44,18.29-33.67,27.42-1.33,1.08-1,2.03-.06,3.12,1.54,1.78,3.19,3.5,4.51,5.44,1.44,2.1,2.64,2.18,4.59.56,2.76-2.29,5.24-5.03,8.93-6.67-.02,1.57-.66,2.47-1.21,3.41-1.59,2.71-3.16,5.42-4.72,8.14-.55.97-1.36,2.03-.5,3.11,2.49,3.12,4.84,6.38,8.09,9.42ZM465.74,636.24c-.12,3.15.67,6.1,1.83,8.9,3.68,8.88,14.14,12.39,22.48,7.63,9.24-5.27,15.69-22.25,12.51-32.93-3.44-11.56-14.68-15.85-24.71-9.11-8.97,6.03-10.72,15.76-12.11,25.51ZM400.49,525.9c-.77.41-1.13.5-1.35.73-7.41,7.82-14.94,15.53-22.15,23.54-4.23,4.7-4.51,10.69-1.3,16.28,5.11,8.9,17,13.93,25.92,3.53,4.89-5.7,10.27-10.98,15.39-16.49,1.81-1.95,4.05-3.54,5.31-6.04-1.91-2.8-4.62-4.68-6.81-7.06-1.45-1.58-2.59-1.25-3.88.19-2.1,2.34-4.29,4.6-6.45,6.87-4.17,4.39-8.35,8.77-12.54,13.14-.54.56-1.18,1.02-1.77,1.54-1.3,1.15-2.44.66-3.6-.27-1.26-1-1.06-2.06-.32-3.25,2.4-3.87,5.96-6.68,8.98-9.99,4.3-4.69,8.7-9.29,12.63-13.47-2.88-3.31-5.52-6.33-8.06-9.26ZM359.82,552.69c1.22-1.37,2.15-2.33,2.99-3.37,5.76-7.16,11.51-14.33,17.25-21.5.94-1.18,1.65-2.31,3.5-.99,4.06,2.91,4.12,2.82,7.31-1.13.49-.61.97-1.25,1.54-1.78,1.94-1.8,1.76-3.22-.38-4.85-4.38-3.32-8.61-6.83-12.87-10.29-5.34-4.33-5.18-4.22-9.74.94-2.24,2.54-2.92,4.33.42,6.25.72.41,1.53,1,1.5,2.25-6.35,7.94-12.8,15.98-19.22,24.03-.86,1.08-2.42,2.12-.64,3.62,2.64,2.21,5.33,4.36,8.34,6.81ZM548.11,675.41c.26-.29.52-.28.79,0-.26.3-.52.27-.79,0Z"/>
  <path class="cls-3" d="M761.02,438.13c.71,4.06,4.24,7.06,4.59,11.75-3.95-1.58-7.17-3.89-11.13-4.49-3.05-.46-6.06-.74-9.03.08-2.41.66-3.58-.09-4.68-2.31-9.1-18.22-20.9-34.58-34.7-49.48-7.2-7.78-14.75-15.23-23.57-21.32,1.96,2.26,3.86,4.56,5.88,6.76,18.51,20.2,33.64,42.65,45.29,67.46,1.22,2.59,1.28,4.31-.66,6.79-6.02,7.71-7.27,16.74-5.86,26.21,2.18,14.56,9.03,26.08,22.74,32.38,10.36,4.76,20.33,1.6,27.04-7.65.75-1.03,1.09-2.55,3.17-2.95.27,3.69.62,7.32.78,10.97.62,14.33-.44,28.56-3.34,42.59-5.06,24.41-14.87,46.76-29.9,66.76-12.45,16.58-27.67,30.07-45.72,40.17-18.74,10.48-38.93,16.36-60.46,16.7-21.26.34-42.52.11-63.78.11-.72,0-1.56.32-2.41-.83,37.39-18.59,59.58-49.79,73.51-87.8-.18-.33-.36-.66-.54-.99-12.07,3.1-24.13,6.19-36.14,9.27-.52-1.15.21-1.52.62-1.95,14.6-15.32,23.4-33.54,27.4-54.23,5.61-28.98,2.1-56.7-12.16-82.63-9.98-18.15-24.11-32.11-44.22-38.91-16.56-5.59-32.8-4.43-48.41,3.38-22.21,11.11-35.43,29.85-43.66,52.56-5.1,14.08-7.23,28.71-6.96,43.69.02.99,0,1.98,0,3.63-4.09-3.48-7.76-6.54-11.35-9.67-4.83-4.21-9.79-8.26-15-11.99-1.73-1.24-2.41-2.59-2.19-4.8,2.35-23.01,8.24-44.98,18.71-65.7,10.19-20.17,23.7-37.54,41.99-51.03,17.58-12.97,37.26-19.64,59.14-19.64,21.71,0,43.43-.38,65.13.16,30.84.76,58.08,11.58,81.82,31.23,11.84,9.8,22.15,20.99,30.41,34,.36.56.61,1.19.91,1.78-3.2-.09-6.41-.24-9.61-.23-1.69,0-3.85.26-3.59,2.48.34,2.88.59,5.93,2.38,8.52,5.86-2.39,11.69-2.05,17.55-.83ZM659.34,446.71c-.24,2.61-3.44,3.87-3.13,6.73,1.13.86,2.08.49,3.12-.11,1.17-.67,1.22-.59,2.05-.4-.32-3.56,3.26-3.91,4.9-5.74,3.38,4.83,4.12,8.93.23,14.64-7.34,10.79-9.15,23.2-4.82,35.77,5.05,14.67,18.83,20.71,32.71,13.46,17.86-9.32,27.45-36.63,16.18-55.6-.28-.48-.83-1.15-.68-1.47,1.53-3.39-.94-5.66-2.18-8.27-1.36-2.86-.85-3.83,2.33-4.18,3.28-.37,6.52-.88,10.49-2.08-4.84-1.36-8.94-1.98-13.05-1.83-3.44.13-5.27-1.28-6.1-4.41.5-2.83-.52-4.76-3.33-5.62-5.22-7.39-10.45-14.78-15.92-22.53,6.58-1.23,13.02-1.07,19.12-3.05-.52-.98-1.42-.76-2.14-.87-6.23-.95-12.49-1.59-18.79-1.29-2.25.11-3.77-.68-5.22-2.34-3.03-3.47-6.1-6.91-9.4-10.12-5.35-5.22-10.56-10.63-16.95-14.69,7.32,8.99,15.65,17.17,22.31,27.51-7.78.78-14.65,1.78-21.38,3.51-1.55.4-2.41-.33-3.35-1.52-6.85-8.63-15.1-15.91-22.96-23.55-2.46-2.4-5.24-4.47-7.87-6.69,8.85,11.17,18.72,21.41,26.42,33.04-.46,1.72-3.01.81-2.56,3.41,5.47-1.21,7.3,3.11,9.62,6.69,5.54,8.58,10.57,17.45,15.02,26.64-.35.41-.7.82-1.06,1.23-2.41.57-4.9.96-6.9,2.83,1.24.34,2.27.63,3.3.91ZM757.52,534.67c-10.88,12.17-24.48,14.5-39.21,12.76-12.21-1.44-22.72-6.17-29.71-17.3,2.22-1.32,4.4-.91,6.55-1.83-7.21-1.19-10.83,1.02-10.92,6.33,1.02-.84.92-2.81,3.2-2.95.16,4.29,1.17,8.39,2.46,12.4,4.16,12.97,11.9,22.34,26.08,24.71,12.74,2.13,23.91-.67,32.39-11.09,4.47-5.5,7.22-11.84,9.05-18.63.28-1.03.15-2.3,1.47-2.87,1.78.75,1.5,2.65,2.2,4.1.83-6.34-3.94-9.82-10.8-7.83,2.33.37,4.6.43,7.23,2.19ZM682.12,575.15c-2.13-.74-3.84-1.21-5.43-1.93-2.35-1.05-3.39-.1-4.26,2.07-1.88,4.67-3.84,9.33-6.04,13.86-11.06,22.71-26.18,42.56-43.4,60.88-6.09,6.47-12.42,12.71-18.64,19.06,33.94-24.65,62.01-54.13,77.78-93.93ZM748.47,577.83c-2.05,0-3.18.14-4.27-.02-4.01-.59-6.11.93-7.69,4.87-4.86,12.12-11.59,23.28-19.03,33.98-12.21,17.56-26.45,33.39-41.85,48.2-1.69,1.63-1.73,1.69-2.7,4.22,32.31-24.54,59.11-53.04,75.53-91.25ZM714.05,578.1c-3-1.09-5.37-.76-7.71-.86-1.57-.06-2.19.95-2.64,2.15-2.42,6.42-5.53,12.51-8.86,18.5-11.85,21.34-26.98,40.18-44.02,57.53-4.41,4.49-9.17,8.64-13.76,12.94.33.31.66.63.99.94,32.5-24.25,59.72-52.9,76-91.21ZM759.05,530.33q5,.28,5.42,5.36c.77-2.23,1.58-4.05-.13-5.55-1.65-1.44-3.5-.93-5.29.19ZM687.24,525.46c-1.59-1.05-3.29-1.47-4.98-.48-.97.57-1,2.19-.34,4.29.83-4.18.98-4.28,5.32-3.8Z"/>
  <path class="cls-5" d="M736.73,497.06c-3.28-2.81-4.4-6.84-5.6-10.68-3.12-10-3.31-19.96,2.21-29.3,5.9-9.98,17.89-12.56,27.84-6.61,15.48,9.25,22.67,30.2,16.66,47.23-2.47,7.02-7.71,12.57-15.81,13.58-6.95.87-13.31-.87-18.32-6.17,1.21-.41,2.15.41,3.21.67,6.27,1.57,11.52.66,14.6-5.93,1.55-3.31,1.24-6.57,1.15-9.87-.2-7.77-6.97-16.56-14.2-18.81-4.29-1.33-9.11.23-11.6,3.92-3.68,5.45-3.98,11.25-1.66,17.33.58,1.51,2.06,2.75,1.52,4.63Z"/>
  <path class="cls-3" d="M541.34,357.18c-3.55,2.41-7.76,3.29-11.61,5.05-16.45,7.5-30.86,17.85-43.73,30.45-1.06,1.03-2.04,2.08-3.65,2.21-9.21.73-18.21,2.69-27.17,4.82-8.96,2.13-17.71,4.97-26.65,7.52,4.53-4.97,10.02-8.82,15.24-12.97,5.28-4.2,10.88-7.96,16.53-11.63,5.74-3.73,11.73-7.04,17.8-10.23,5.97-3.14,12.26-5.53,19.01-8.13-3.44-3.03-7.64-4.27-10.69-7.15.52-.88,1.27-.53,1.84-.45,16.9,2.44,33.83,2.15,50.78.58.77-.07,1.56,0,2.34,0l-.02-.03Z"/>
  <path class="cls-6" d="M736.73,497.06c.54-1.88-.94-3.12-1.52-4.63-2.31-6.07-2.02-11.88,1.66-17.33,2.49-3.69,7.31-5.25,11.6-3.92,7.23,2.25,14,11.04,14.2,18.81.08,3.3.4,6.56-1.15,9.87-3.08,6.59-8.33,7.5-14.6,5.93-1.07-.27-2.01-1.08-3.21-.67,0,0,.09,0,.09,0,.07-1.21-.64-1.51-1.67-1.44-.84-.04-1.21-.55-1.31-1.32-.28-.64-.61-1.24-1.39-1.4l-.27-.03s-.03-.27-.03-.27c-.04-.49-.21-.88-.72-1.04l.02.04c-.03-1.2-.26-2.27-1.65-2.61h-.05ZM745.32,479.55c-4.04,2.16-5.26,5.34-4.02,10.52,1,4.2,4.98,7.97,8.51,8,2.66.03,4.44-1.3,5.43-3.73,1.55-3.8.4-7.24-1.44-10.58.22-.51.61-1.01.65-1.54.19-2.55-.33-4.91-2.54-6.51-1.54-1.12-3.22-1.47-5.04-.56-1.97.99-1.58,2.73-1.53,4.39Z"/>
  <path class="cls-5" d="M761.02,438.13c-5.86-1.22-11.69-1.56-17.55.83-1.78-2.59-2.04-5.64-2.38-8.52-.26-2.23,1.89-2.48,3.59-2.48,3.2-.01,6.4.14,9.61.23,1.68,2.05,4.33,1.41,6.47,2.29,6.72,2.79,12.18,7.12,17.36,12.12,3.24,3.12,5.04,7.03,7.89,10.4-1.22,1.03-2.01,1.2-2.94.32-2.97-2.84-5.86-5.78-8.98-8.43-3.81-3.23-8.14-5.61-13.07-6.76ZM778.65,446.46c-4.45-10.75-22.33-18.52-36.24-16.04.52,2.13,1.03,4.25,1.59,6.58,13.53-3.7,24.54,1.14,34.65,9.47Z"/>
  <path class="cls-5" d="M736.78,497.04c1.39.34,1.62,1.41,1.65,2.61-1.06-.55-1.89-1.24-1.65-2.61Z"/>
  <path class="cls-3" d="M541.37,357.21c.48-.67,1.1-.56,2.17-.18-1.01.07-1.6.11-2.2.15,0,0,.02.03.02.03Z"/>
  <path class="cls-5" d="M742.14,503.67c1.03-.07,1.74.23,1.67,1.44-.98.01-1.43-.6-1.67-1.44Z"/>
  <path class="cls-5" d="M739.44,500.95c.78.15,1.1.75,1.39,1.4-.92-.01-1.24-.61-1.39-1.4Z"/>
  <path class="cls-5" d="M738.41,499.61c.51.16.69.55.72,1.04-.57-.12-.81-.47-.72-1.04Z"/>
  <path class="cls-8" d="M422.39,620.89c6.64-8.2,12.93-15.95,19.2-23.7,2.75-3.4,5.49-6.82,8.27-10.2.85-1.03,1.76-2.34,3.29-.98,4.36,3.88,9.4,6.98,13.32,11.36,5.59,6.25,4.92,13.94-1.36,19.29-2.56,2.18-5.37,1.78-8.84,1.18,1.68,3.18,2.65,6.15,1.22,9.19-1.36,2.89-3.32,5.3-6.16,6.93-4.62,2.65-9.21,2.25-13.33-.72-5.26-3.8-10.2-8.04-15.61-12.35ZM439.12,620.89c1.66,1.75,3.35,2.41,5.33,1.57,1.55-.65,2.5-1.88,2.5-3.65,0-1.97-.87-3.34-2.78-4.13-1.95,1.92-3.71,3.76-5.06,6.2ZM450.61,606.74c3.02,2.43,4.73,2.47,6.33.26,1.53-2.11.94-3.86-1.97-5.6-1.77,1.51-3.06,3.43-4.36,5.33Z"/>
  <path class="cls-8" d="M416.34,610.65c-3.26-3.04-5.6-6.3-8.09-9.42-.86-1.08-.05-2.14.5-3.11,1.56-2.72,3.13-5.44,4.72-8.14.56-.95,1.2-1.85,1.21-3.41-3.69,1.63-6.17,4.37-8.93,6.67-1.95,1.62-3.16,1.54-4.59-.56-1.33-1.94-2.97-3.66-4.51-5.44-.95-1.09-1.27-2.04.06-3.12,11.23-9.13,22.45-18.28,33.67-27.42.16-.13.42-.12.94-.25,4,4.63,8.27,9.22,11.39,14.68,2.78,4.88,2.85,9.99-.37,14.63-3.37,4.84-7.81,8.28-14.24,6.83-2.56-.58-3.55.33-4.5,2.53-2.21,5.12-4.7,10.11-7.26,15.53ZM430.78,572.71c-2.28,1.84-4.36,3.51-6.42,5.21-1.93,1.6-1.06,2.59.76,3.36,2.83,1.19,4.86-.42,6.46-2.26,1.67-1.93,1.31-4.12-.81-6.3ZM415.62,585.72l-.19-.15-.03.24.22-.09Z"/>
  <path class="cls-8" d="M465.74,636.24c1.39-9.75,3.14-19.47,12.11-25.51,10.03-6.74,21.27-2.45,24.71,9.11,3.18,10.68-3.28,27.66-12.51,32.93-8.34,4.76-18.8,1.25-22.48-7.63-1.16-2.8-1.94-5.75-1.83-8.9ZM490.27,625.08c-.19-2.04.48-4.34-1.93-5.13-2.49-.81-3.67,1.26-4.74,2.92-2.91,4.54-4.43,9.57-4.63,14.94-.06,1.71-.1,3.89,1.96,4.64,2.32.85,3.61-1.13,4.55-2.65,2.82-4.55,4.39-9.56,4.77-14.72Z"/>
  <path class="cls-8" d="M400.49,525.9c2.55,2.93,5.18,5.95,8.06,9.26-3.93,4.18-8.33,8.78-12.63,13.47-3.02,3.3-6.58,6.12-8.98,9.99-.74,1.19-.93,2.25.32,3.25,1.16.92,2.3,1.42,3.6.27.59-.52,1.23-.98,1.77-1.54,4.19-4.37,8.37-8.75,12.54-13.14,2.17-2.28,4.36-4.54,6.45-6.87,1.29-1.44,2.44-1.77,3.88-.19,2.19,2.38,4.9,4.26,6.81,7.06-1.26,2.51-3.5,4.1-5.31,6.04-5.12,5.51-10.5,10.79-15.39,16.49-8.93,10.4-20.82,5.38-25.92-3.53-3.21-5.6-2.93-11.58,1.3-16.28,7.21-8,14.74-15.71,22.15-23.54.21-.23.57-.32,1.35-.73Z"/>
  <path class="cls-8" d="M359.82,552.69c-3.01-2.45-5.7-4.6-8.34-6.81-1.79-1.5-.22-2.55.64-3.62,6.43-8.05,12.87-16.09,19.22-24.03.03-1.24-.78-1.83-1.5-2.25-3.35-1.92-2.67-3.71-.42-6.25,4.56-5.16,4.4-5.27,9.74-.94,4.27,3.46,8.5,6.97,12.87,10.29,2.15,1.63,2.32,3.04.38,4.85-.57.53-1.05,1.17-1.54,1.78-3.19,3.95-3.26,4.04-7.31,1.13-1.84-1.32-2.55-.19-3.5.99-5.74,7.17-11.49,14.34-17.25,21.5-.84,1.04-1.77,2-2.99,3.37Z"/>
  <path class="cls-8" d="M548.11,675.41c.27.26.53.29.79,0-.27-.27-.53-.28-.79,0Z"/>
  <path class="cls-8" d="M664.01,441.74c-4.46-9.19-9.49-18.06-15.03-26.64-2.31-3.58-4.15-7.9-9.62-6.69-.44-2.6,2.11-1.69,2.56-3.41-7.71-11.62-17.57-21.87-26.42-33.04,2.63,2.22,5.41,4.29,7.87,6.69,7.86,7.65,16.11,14.93,22.96,23.55.94,1.19,1.8,1.92,3.35,1.52,6.74-1.73,13.6-2.73,21.38-3.51-6.66-10.34-14.99-18.52-22.31-27.51,6.38,4.07,11.59,9.48,16.95,14.69,3.29,3.21,6.37,6.65,9.4,10.12,1.45,1.66,2.97,2.45,5.22,2.34,6.3-.3,12.56.34,18.79,1.29.71.11,1.62-.11,2.14.87-6.1,1.99-12.54,1.82-19.12,3.05,5.48,7.75,10.7,15.14,15.91,22.53-2.93,1.64-5.88,1.16-8.83.11-2.04-5.39-6.01-9.65-8.58-14.7-2.89-5.67-6.72-8.1-13.29-6.63-5.03,1.12-10.32,1.1-16.08,1.65,6.99,9.32,13.02,18.47,18.63,27.9-1.02,2.9-3.62,4.19-5.88,5.83Z"/>
  <path class="cls-4" d="M757.52,534.67c-2.63-1.76-4.9-1.82-7.23-2.19,6.86-1.99,11.63,1.49,10.8,7.83-.7-1.45-.42-3.35-2.2-4.1-1.32.57-1.19,1.84-1.47,2.87-1.82,6.79-4.57,13.13-9.05,18.63-8.49,10.42-19.66,13.22-32.39,11.09-14.18-2.37-21.92-11.74-26.08-24.71-1.29-4.01-2.3-8.12-2.46-12.4-2.29.14-2.18,2.1-3.2,2.95.09-5.3,3.71-7.52,10.92-6.33-2.16.92-4.33.51-6.55,1.83,6.99,11.12,17.5,15.85,29.71,17.3,14.74,1.74,28.33-.59,39.21-12.76ZM752.51,542.16c-20.71,11.09-40.58,9.72-59.91-3.34,16.67,24.6,47.07,20.91,59.91,3.34ZM738.85,563.34c-11.56-6.84-23.25-7.61-35.53-2.16,8.99,7.6,25.62,8.63,35.53,2.16Z"/>
  <path class="cls-8" d="M701.38,433.22c.84,3.13,2.67,4.54,6.1,4.41,4.11-.16,8.21.46,13.05,1.83-3.97,1.19-7.21,1.71-10.49,2.08-3.18.36-3.68,1.32-2.33,4.18,1.24,2.61,3.71,4.89,2.18,8.27-.15.32.4,1,.68,1.47,11.27,18.97,1.68,46.28-16.18,55.6-13.88,7.25-27.66,1.2-32.71-13.46-4.33-12.57-2.51-24.98,4.82-35.77,3.89-5.72,3.15-9.82-.23-14.64-.11-1.02.42-1.71,1.19-2.24,4.44-3.04,8.87-5.93,14.51-6.48,5.55-.54,11.05-1.5,16.49-.36,1.64-1.38.2-4.33,2.9-4.89ZM702.03,501.64c.34-.34.68-.68,1.03-1.02,9.07-11.24,12.29-23.89,8.2-37.82-4.48-15.25-20.32-20.18-33.03-10.66-12.9,9.66-19.16,27.03-15,42.55,2.1,7.85,6.45,14.26,14.88,16.23,9.44,2.2,17.04-1.59,23.3-8.54.43-.06.63-.3.62-.73ZM698.51,445.84c-.09-2.23-1.04-3.02-2.83-2.81-1.89.22-3.79.4-5.67.72-4.92.82-10.01.31-14.95,1.75.14,1.88.95,3.1,2.2,4.27,6.59-4.09,13.51-6.11,21.24-3.93Z"/>
  <path class="cls-8" d="M682.12,575.15c-15.77,39.81-43.84,69.28-77.78,93.93,6.22-6.35,12.55-12.59,18.64-19.06,17.22-18.32,32.34-38.17,43.4-60.88,2.21-4.53,4.16-9.19,6.04-13.86.87-2.17,1.91-3.12,4.26-2.07,1.6.72,3.3,1.18,5.43,1.93Z"/>
  <path class="cls-8" d="M748.47,577.83c-16.42,38.21-43.22,66.71-75.53,91.25.98-2.53,1.02-2.6,2.7-4.22,15.39-14.81,29.64-30.63,41.85-48.2,7.44-10.7,14.17-21.86,19.03-33.98,1.58-3.94,3.68-5.46,7.69-4.87,1.09.16,2.21.02,4.27.02Z"/>
  <path class="cls-8" d="M714.05,578.1c-16.28,38.3-43.5,66.95-76,91.21-.33-.31-.66-.63-.99-.94,4.6-4.3,9.35-8.45,13.76-12.94,17.05-17.35,32.18-36.19,44.02-57.53,3.32-5.99,6.44-12.08,8.86-18.5.45-1.2,1.06-2.21,2.64-2.15,2.34.1,4.71-.24,7.71.86Z"/>
  <path class="cls-5" d="M701.38,433.22c-2.7.56-1.26,3.51-2.9,4.89-5.44-1.15-10.95-.19-16.49.36-5.64.55-10.07,3.44-14.51,6.48-.78.53-1.31,1.22-1.19,2.24-1.64,1.83-5.22,2.17-4.9,5.74-.84-.18-.88-.27-2.05.4-1.05.6-2,.97-3.12.11-.31-2.86,2.89-4.12,3.12-6.73,1.77-.7,3.13-1.79,3.61-3.74.35-.41.7-.82,1.06-1.23,2.26-1.64,4.87-2.94,5.88-5.83.83.17,1.61-.1,2.19-.58,5.02-4.12,11.36-5.23,17.13-7.63,2.95,1.05,5.9,1.53,8.83-.11,2.82.87,3.84,2.8,3.34,5.63ZM661.17,447.8c-.17.3-.75.52-.37.92.43.46.6-.04.76-.37.42-.02.66-.22.69-.65,10.23-8.86,21.39-14.71,35.66-10.71.56-2.4,1.61-4.37,1.42-6.63-15.53-3.21-30.06,6.18-37.69,16.96-.15.16-.31.32-.46.48Z"/>
  <path class="cls-4" d="M759.05,530.33c1.8-1.12,3.65-1.62,5.29-.19,1.71,1.49.89,3.32.13,5.55q-.42-5.08-5.42-5.36Z"/>
  <path class="cls-4" d="M687.24,525.46c-4.34-.48-4.49-.38-5.32,3.8-.67-2.1-.64-3.72.34-4.29,1.69-.99,3.4-.57,4.98.48Z"/>
  <path class="cls-8" d="M662.94,442.97c-.48,1.95-1.84,3.05-3.61,3.74-1.02-.29-2.05-.57-3.29-.91,2-1.87,4.49-2.26,6.9-2.83Z"/>
  <path class="cls-4" d="M753.79,483.76c1.84,3.34,2.99,6.78,1.44,10.58-.99,2.43-2.77,3.76-5.43,3.73-3.53-.03-7.51-3.81-8.51-8-1.24-5.18-.02-8.36,4.02-10.52,2.52,4.71,4.43,5.67,8.47,4.21Z"/>
  <path class="cls-5" d="M753.79,483.76c-4.04,1.46-5.95.51-8.47-4.21-.05-1.66-.44-3.41,1.53-4.39,1.83-.92,3.5-.56,5.04.56,2.21,1.6,2.73,3.95,2.54,6.51-.04.52-.42,1.02-.65,1.54Z"/>
  <path class="cls-4" d="M778.65,446.46c-10.11-8.32-21.12-13.17-34.65-9.47-.56-2.33-1.08-4.44-1.59-6.58,13.92-2.48,31.8,5.29,36.24,16.04Z"/>
  <path class="cls-3" d="M439.12,620.89c1.35-2.44,3.1-4.28,5.06-6.2,1.9.79,2.78,2.15,2.78,4.13,0,1.77-.96,2.99-2.5,3.65-1.99.84-3.67.18-5.33-1.57Z"/>
  <path class="cls-3" d="M450.61,606.74c1.31-1.9,2.59-3.82,4.36-5.33,2.91,1.73,3.5,3.49,1.97,5.6-1.6,2.21-3.31,2.17-6.33-.26Z"/>
  <path class="cls-3" d="M430.78,572.71c2.12,2.18,2.48,4.37.81,6.3-1.6,1.84-3.63,3.45-6.46,2.26-1.82-.77-2.69-1.76-.76-3.36,2.06-1.7,4.14-3.36,6.42-5.21Z"/>
  <polygon class="cls-3" points="415.62 585.72 415.4 585.81 415.43 585.58 415.62 585.72"/>
  <path class="cls-3" d="M490.27,625.08c-.38,5.16-1.96,10.18-4.77,14.72-.95,1.53-2.23,3.5-4.55,2.65-2.06-.75-2.03-2.93-1.96-4.64.2-5.37,1.72-10.41,4.63-14.94,1.07-1.66,2.24-3.73,4.74-2.92,2.41.78,1.73,3.08,1.93,5.13Z"/>
  <path class="cls-3" d="M689.21,427.7c-5.77,2.4-12.12,3.51-17.13,7.63-.58.48-1.37.75-2.19.58-5.61-9.42-11.63-18.57-18.63-27.89,5.76-.55,11.04-.53,16.08-1.65,6.57-1.46,10.41.96,13.29,6.63,2.57,5.05,6.55,9.31,8.58,14.7Z"/>
  <path class="cls-5" d="M752.51,542.16c-12.84,17.57-43.24,21.26-59.91-3.34,19.33,13.06,39.2,14.43,59.91,3.34Z"/>
  <path class="cls-5" d="M738.85,563.34c-9.91,6.46-26.55,5.44-35.53-2.16,12.28-5.45,23.97-4.68,35.53,2.16Z"/>
  <path class="cls-5" d="M701.41,502.38c-6.27,6.95-13.86,10.73-23.3,8.54-8.44-1.96-12.78-8.37-14.88-16.23-4.16-15.52,2.1-32.88,15-42.55,12.71-9.52,28.55-4.59,33.03,10.66,4.09,13.93.87,26.59-8.2,37.82-.14-.13-.27-.26-.42-.39,4.24-5.77,5.62-12.18,4.8-19.3-1.06-9.12-9.27-12.61-16.27-8.87-9.01,4.82-12.82,13.19-11.97,23.39.56,6.78,5.92,11.02,12.72,10.96,3.86-.03,6.13-3.06,9.36-4.18l.14.15Z"/>
  <path class="cls-3" d="M698.51,445.84c-7.73-2.18-14.65-.16-21.24,3.93-1.25-1.17-2.07-2.39-2.2-4.27,4.94-1.44,10.03-.92,14.95-1.75,1.88-.31,3.78-.5,5.67-.72,1.78-.2,2.74.58,2.83,2.81Z"/>
  <path class="cls-5" d="M703.05,500.62c-.34.34-.68.68-1.03,1.02l-.15-.12c.25-.43.51-.86.76-1.29.14.13.28.25.42.39Z"/>
  <path class="cls-5" d="M702.03,501.64c.01.43-.19.67-.62.73,0,0-.13-.15-.13-.15.2-.23.4-.47.6-.7l.15.12Z"/>
  <path class="cls-4" d="M661.63,447.32c7.64-10.78,22.17-20.17,37.69-16.96.19,2.26-.86,4.23-1.42,6.63-14.27-4-25.43,1.85-35.66,10.71-.2-.13-.41-.25-.61-.38Z"/>
  <path class="cls-4" d="M661.56,448.35c-.16.34-.33.83-.76.37-.38-.4.2-.62.37-.92.11.2.24.38.38.55Z"/>
  <path class="cls-4" d="M661.17,447.8c.15-.16.31-.32.46-.48.2.13.41.26.61.38-.03.43-.27.63-.69.65-.15-.17-.28-.35-.38-.55Z"/>
  <path class="cls-6" d="M701.88,501.53c-.2.23-.4.47-.6.7-3.23,1.12-5.5,4.15-9.36,4.18-6.8.06-12.15-4.17-12.72-10.96-.85-10.2,2.96-18.56,11.97-23.39,6.99-3.74,15.21-.24,16.27,8.87.82,7.11-.56,13.52-4.8,19.3-.25.43-.51.86-.76,1.29ZM687.9,483.85c-.75,2.1-1.69,4.13-1.86,6.4-.35,4.65,2.69,8.2,6.66,7.76,3.64-.4,7.2-4.26,8.14-8.82.99-4.8-.2-7.54-4.27-9.82.07-1.92.28-3.97-2.14-4.64-2.32-.64-3.99.33-5.36,2.3-1.49,2.15-2.09,4.32-1.16,6.81Z"/>
  <path class="cls-4" d="M696.56,479.38c4.07,2.27,5.26,5.02,4.27,9.82-.94,4.56-4.51,8.42-8.14,8.82-3.97.44-7.01-3.12-6.66-7.76.17-2.27,1.12-4.31,1.86-6.4,4.58,1.33,6.58.3,8.67-4.47Z"/>
  <path class="cls-5" d="M696.56,479.38c-2.09,4.77-4.08,5.8-8.67,4.47-.93-2.5-.33-4.66,1.16-6.81,1.37-1.97,3.04-2.95,5.36-2.3,2.42.67,2.21,2.73,2.14,4.64Z"/>
</svg>